<svg xmlns="http://www.w3.org/2000/svg" viewBox="0 0 30.35 23.046"><title>comingsoon</title><g id="Layer_2" data-name="Layer 2"><g id="Layer_1-2" data-name="Layer 1"><path d="M25.625,14.246a.551.551,0,0,1-.5-.2l-4.3-3.8a.778.778,0,1,1,1.1-1.1l3.7,3.4,3.4-3.7a.778.778,0,0,1,1.1,1.1l-3.8,4.3c-.4-.2-.5,0-.7,0Z" style="fill:#fff"/><path d="M.725,14.746a.551.551,0,0,1-.5-.2.785.785,0,0,1,0-1.1l3.8-4.3c.2-.2.3-.3.5-.3s.5,0,.6.2l4.3,3.8a.778.778,0,0,1-1.1,1.1l-3.7-3.4-3.4,3.7C1.125,14.746.825,14.746.725,14.746Z" style="fill:#fff"/><path d="M25.625,13.946h0a.909.909,0,0,1-.8-1,10.7,10.7,0,0,0-1.8-7.4,9.359,9.359,0,0,0-6.6-3.8,10.7,10.7,0,0,0-7.4,1.8.731.731,0,0,1-1.1-.2.731.731,0,0,1,.2-1.1,11.093,11.093,0,0,1,8.5-2.1,11.526,11.526,0,0,1,7.5,4.5,11.093,11.093,0,0,1,2.1,8.5C26.425,13.546,25.925,13.946,25.625,13.946Z" style="fill:#fff"/><path d="M15.125,23.046a5.845,5.845,0,0,1-1.8-.2,11.4,11.4,0,0,1-9.6-13,.689.689,0,0,1,1-.6.689.689,0,0,1,.6,1,10.7,10.7,0,0,0,1.8,7.4,9.359,9.359,0,0,0,6.6,3.8,10.7,10.7,0,0,0,7.4-1.8.791.791,0,0,1,.9,1.3A13.276,13.276,0,0,1,15.125,23.046Z" style="fill:#fff"/></g></g></svg>