<svg xmlns="http://www.w3.org/2000/svg" viewBox="0 0 27.2 27.2"><title>create</title><g id="Layer_2" data-name="Layer 2"><g id="Layer_1-2" data-name="Layer 1"><path d="M13.6,27.2A13.6,13.6,0,1,1,27.2,13.6,13.614,13.614,0,0,1,13.6,27.2Zm0-25.6a12,12,0,1,0,12,12A12.035,12.035,0,0,0,13.6,1.6Z" style="fill:#fff"/><path d="M17.6,14.4h-8a.8.8,0,0,1,0-1.6h8a.8.8,0,0,1,0,1.6Z" style="fill:#fff"/><path d="M13.6,18.4a.736.736,0,0,1-.8-.8v-8a.8.8,0,1,1,1.6,0v8A.736.736,0,0,1,13.6,18.4Z" style="fill:#fff"/></g></g></svg>