<svg xmlns="http://www.w3.org/2000/svg" viewBox="0 0 24.675 24.575"><title>edit</title><g id="Layer_2" data-name="Layer 2"><g id="Layer_1-2" data-name="Layer 1"><path d="M21,9.575c-.2,0-.5,0-.6-.2l-5.1-5.1c-.2-.2-.2-.3-.2-.6s.2-.5.2-.6l2.1-2.1a3.082,3.082,0,0,1,4.5,0l1.8,1.8a3.082,3.082,0,0,1,0,4.5l-2.1,2.1A.846.846,0,0,1,21,9.575Zm-4-6,4,4,1.6-1.6a1.569,1.569,0,0,0,0-2.2l-1.8-1.8a1.57,1.57,0,0,0-2.2,0Z" style="fill:#444"/><path d="M.8,24.575c-.2,0-.5-.2-.6-.2a1.2,1.2,0,0,1-.2-.8l1-6.1c0-.2.2-.3.2-.5l14.1-14.1a.785.785,0,0,1,1.1,0l5.1,5.1c.2.2.2.3.2.6s-.2.5-.2.6L7.4,23.275a.551.551,0,0,1-.5.2l-6.1,1.1Zm1.8-6.6-.8,4.8,4.8-.8,13.3-13.3-4-4Z" style="fill:#444"/><path d="M8.3,22.175c-.2,0-.5,0-.6-.2l-5.1-5.1a.778.778,0,1,1,1.1-1.1l5.1,5.1a.785.785,0,0,1,0,1.1A.766.766,0,0,1,8.3,22.175Z" style="fill:#444"/></g></g></svg>