<svg xmlns="http://www.w3.org/2000/svg" viewBox="0 0 16 24.8"><title>faq</title><g id="Layer_2" data-name="Layer 2"><g id="Layer_1-2" data-name="Layer 1"><path d="M8,20c-4.5,0-8-3.2-8-7.2A.736.736,0,0,1,.8,12a.736.736,0,0,1,.8.8c0,3,2.9,5.6,6.4,5.6s6.4-2.6,6.4-5.6a.8.8,0,1,1,1.6,0C16,16.6,12.5,20,8,20Z" style="fill:#fff"/><path d="M8,16a4.012,4.012,0,0,1-4-4V4a4,4,0,0,1,8,0v8A4.011,4.011,0,0,1,8,16ZM8,1.6A2.433,2.433,0,0,0,5.6,4v8a2.4,2.4,0,0,0,4.8,0V4A2.309,2.309,0,0,0,8,1.6Z" style="fill:#f8f6f6"/><rect x="7.2" y="19.2" width="1.6" height="4.8" style="fill:#f8f6f6"/><path d="M11.2,24.8H4.8a.8.8,0,0,1,0-1.6h6.4a.8.8,0,0,1,0,1.6Z" style="fill:#f8f6f6"/></g></g></svg>