<svg xmlns="http://www.w3.org/2000/svg" viewBox="0 0 18.275 27.256"><title>guide</title><g id="Layer_2" data-name="Layer 2"><g id="Layer_1-2" data-name="Layer 1"><path d="M11.975,24.056h-5.6a2.156,2.156,0,0,1-2.2-2.2,11.159,11.159,0,0,0-2.2-6.9,9.776,9.776,0,0,1-1.9-7.2,9.337,9.337,0,0,1,8-7.7,9.129,9.129,0,0,1,10.2,9.1,8.987,8.987,0,0,1-1.8,5.4,11.229,11.229,0,0,0-2.4,6.7v.5A2.227,2.227,0,0,1,11.975,24.056Zm-2.9-22.4h-1a7.433,7.433,0,0,0-6.6,6.4,7.265,7.265,0,0,0,1.6,5.9,12.827,12.827,0,0,1,2.6,7.8.526.526,0,0,0,.6.6h5.6a.645.645,0,0,0,.6-.6v-.5a13.584,13.584,0,0,1,2.7-7.7,7.287,7.287,0,0,0,1.4-4.5C16.775,5.056,13.175,1.656,9.075,1.656Z" style="fill:#fff"/><path d="M12.875,22.756a.6.6,0,0,1,0,.8l-1.6,3.2a1.176,1.176,0,0,1-.6.5h-3.2a.56.56,0,0,1-.6-.5l-1.6-3.2a.608.608,0,0,1,0-.8Zm-4.9,2.9h2.2l.8-1.6h-3.8Z" style="fill:#fff"/><rect x="4.275" y="16.856" width="9.8" height="1.6" style="fill:#fff"/></g></g></svg>