<svg xmlns="http://www.w3.org/2000/svg" viewBox="0 0 20.9 25.3"><title>profile</title><g id="Layer_2" data-name="Layer 2"><g id="Layer_1-2" data-name="Layer 1"><path d="M10.4,14.4C6.9,14.4,4,11.2,4,7.2S6.9,0,10.4,0s6.4,3.2,6.4,7.2S13.9,14.4,10.4,14.4Zm0-12.8c-2.7,0-4.8,2.6-4.8,5.6s2.1,5.6,4.8,5.6,4.8-2.6,4.8-5.6S13.1,1.6,10.4,1.6Z" style="fill:#fff"/><path d="M20,25.3a.736.736,0,0,1-.8-.8V19.1a5.378,5.378,0,0,0-5.4-5.4h-.5a.736.736,0,0,1-.8-.8.736.736,0,0,1,.8-.8h.6a7.086,7.086,0,0,1,7,7v5.4A.948.948,0,0,1,20,25.3Z" style="fill:#fff"/><path d="M.8,25.3a.736.736,0,0,1-.8-.8V19.1a7.086,7.086,0,0,1,7-7h.6a.736.736,0,0,1,.8.8.736.736,0,0,1-.8.8H7a5.378,5.378,0,0,0-5.4,5.4v5.4A.789.789,0,0,1,.8,25.3Z" style="fill:#fff"/></g></g></svg>