<svg xmlns="http://www.w3.org/2000/svg" viewBox="0 0 27.069 23.9"><title>projects</title><g id="Layer_2" data-name="Layer 2"><g id="Layer_1-2" data-name="Layer 1"><path d="M23.3,16.6H19.9a.8.8,0,1,1,0-1.6h3.4a2.689,2.689,0,0,0,1.8-.8,2.078,2.078,0,0,0,.5-1.9,2.66,2.66,0,0,0-1.9-1.8l-1-.2a1.957,1.957,0,0,1-1.6-2.2L21.3,7V6.4A4.448,4.448,0,0,0,20,3.2a4.816,4.816,0,0,0-3.2-1.3A4.2,4.2,0,0,0,13,4.6l-.3.6a1.772,1.772,0,0,1-2.1,1.1l-.8-.2A3.45,3.45,0,0,0,6.3,8.3l-.2.6a1.687,1.687,0,0,1-1.6,1.3l-.8.2a2.609,2.609,0,0,0-1.6,1.1,2.15,2.15,0,0,0-.2,1.9,2.459,2.459,0,0,0,2.2,1.4H7.3a.736.736,0,0,1,.8.8.908.908,0,0,1-1,.8H3.9A3.7,3.7,0,0,1,.2,13.8a3.972,3.972,0,0,1,.3-3.2A3.9,3.9,0,0,1,3.2,8.8L4,8.6a.319.319,0,0,0,.3-.3l.2-.6A5.064,5.064,0,0,1,9.1,4.3h.5l.8.2a.551.551,0,0,0,.5-.2l.3-.6A6.481,6.481,0,0,1,16.5,0,6.9,6.9,0,0,1,21,1.6a6.324,6.324,0,0,1,1.9,4.3,1.978,1.978,0,0,1-.2,1L22.5,8c0,.2.2.5.3.5l1,.2a3.8,3.8,0,0,1,2.4,6.2A3.163,3.163,0,0,1,23.3,16.6Z" style="fill:#fff"/><path d="M13.4,23.9h0c-.2,0-.5-.2-.6-.2l-2.4-2.6A.778.778,0,0,1,11.5,20l1.9,1.9L15.3,20a.778.778,0,0,1,1.1,1.1L14,23.5C13.7,23.8,13.6,23.9,13.4,23.9Z" style="fill:#fff"/><path d="M13.4,23.9a.736.736,0,0,1-.8-.8v-8a.736.736,0,0,1,.8-.8.736.736,0,0,1,.8.8v8A1.085,1.085,0,0,1,13.4,23.9Z" style="fill:#fff"/></g></g></svg>