<svg xmlns="http://www.w3.org/2000/svg" viewBox="0 0 27.2 27.2" width="20" height="20"><title>Asset 2</title><g id="Layer_2" data-name="Layer 2"><g id="Layer_1-2" data-name="Layer 1"><path d="M13.6,27.2A13.6,13.6,0,1,1,27.2,13.6,13.614,13.614,0,0,1,13.6,27.2Zm0-25.6a12,12,0,1,0,12,12A12.035,12.035,0,0,0,13.6,1.6Z" style="fill:#444"/><path d="M12.4,17.6A1.678,1.678,0,0,1,11,17L9.2,15.2a.778.778,0,0,1,1.1-1.1l1.8,1.8c.2.2.2.2.3.2h0c.2,0,.3,0,.3-.2L17,11.6a.778.778,0,0,1,1.1,1.1L13.8,17a2.025,2.025,0,0,1-1.4.6Z" style="fill:#444"/></g></g></svg>