<svg xmlns="http://www.w3.org/2000/svg" viewBox="0 0 27.2 27.2"><title>usage</title><g id="Layer_2" data-name="Layer 2"><g id="Layer_1-2" data-name="Layer 1"><path d="M26.4,27.2H.8a.736.736,0,0,1-.8-.8V.8A.736.736,0,0,1,.8,0a.736.736,0,0,1,.8.8V25.6H26.4a.8.8,0,1,1,0,1.6Z" style="fill:#fff; fill-opacity:0.7;"/><path d="M.8,17.6a.854.854,0,0,1-.6-.3.731.731,0,0,1,.2-1.1l6.2-4.6a.9.9,0,0,1,1,0l6.1,3.7L24.3,5.4a.778.778,0,0,1,1.1,1.1l-11,10.4a.919.919,0,0,1-1,.2L7.3,13.4,1.5,17.7A1.953,1.953,0,0,0,.8,17.6Z" style="fill:#fff; fill-opacity:0.7;"/><path d="M7.9,26.4v-7H6.3v7H4.7V18.6a.736.736,0,0,1,.8-.8H8.7a.736.736,0,0,1,.8.8v7.8Z" style="fill:#fff; fill-opacity:0.7;"/><path d="M15.1,26.4V22.1H13.5v4.3H11.9V21.3a.736.736,0,0,1,.8-.8h3.2a.736.736,0,0,1,.8.8v5.1Z" style="fill:#fff; fill-opacity:0.7;"/><path d="M22.3,26.4V17H20.7v9.4H19.1V16.2a.736.736,0,0,1,.8-.8h3.2a.736.736,0,0,1,.8.8V26.4Z" style="fill:#fff; fill-opacity:0.7;"/></g></g></svg>