<svg xmlns="http://www.w3.org/2000/svg" viewBox="0 0 21.75 14.325"><title>usage-arrow</title><g id="Layer_2" data-name="Layer 2"><g id="Layer_1-2" data-name="Layer 1"><path d="M15.2,14.325c-.2,0-.5,0-.6-.2a.785.785,0,0,1,0-1.1l5.3-5.3a.785.785,0,0,0,0-1.1l-5.3-5.3a.785.785,0,0,1,0-1.1.785.785,0,0,1,1.1,0l5.3,5.3a2.3,2.3,0,0,1,0,3.4l-5.3,5.3C15.7,14.325,15.5,14.325,15.2,14.325Z" style="fill:#444"/><path d="M20,7.925H.8a.736.736,0,0,1-.8-.8.736.736,0,0,1,.8-.8H20a.736.736,0,0,1,.8.8A.736.736,0,0,1,20,7.925Z" style="fill:#444"/></g></g></svg>