<svg xmlns="http://www.w3.org/2000/svg" viewBox="0 0 30.381 23.55" width="20" height="13"><title>billing</title><g id="Layer_2" data-name="Layer 2"><g id="Layer_1-2" data-name="Layer 1"><path d="M24.881,23.55H5.681a2.433,2.433,0,0,1-2.4-2.4v-8a.736.736,0,0,0-.8-.8H.881a1.02,1.02,0,0,1-.8-.5c-.2-.3,0-.6.3-1L13.781.45a2.561,2.561,0,0,1,2.9,0l13.4,10.4c.3.2.3.6.3,1a1.02,1.02,0,0,1-.8.5h-1.6a.736.736,0,0,0-.8.8v8A2.348,2.348,0,0,1,24.881,23.55Zm-21.8-12.8a2.547,2.547,0,0,1,1.8,2.2v8a.736.736,0,0,0,.8.8h19.2a.736.736,0,0,0,.8-.8v-8a2.176,2.176,0,0,1,1.8-2.2l-11.7-9.1a.9.9,0,0,0-1,0Z" style="fill:#444"/><path d="M17.681,22.75v-8a.736.736,0,0,0-.8-.8h-3.2a.736.736,0,0,0-.8.8v8h-1.6v-8a2.433,2.433,0,0,1,2.4-2.4h3.2a2.433,2.433,0,0,1,2.4,2.4v8Z" style="fill:#444"/></g></g></svg>