<svg xmlns="http://www.w3.org/2000/svg" viewBox="0 0 19.525 19.225" width="20" height="20"><title>my-transactions</title><g id="Layer_2" data-name="Layer 2"><g id="Layer_1-2" data-name="Layer 1"><path d="M18.725,2.425H7.825a.736.736,0,0,1-.8-.8.736.736,0,0,1,.8-.8h10.9a.736.736,0,0,1,.8.8A.736.736,0,0,1,18.725,2.425Z" style="fill:#444"/><path d="M18.725,10.425H7.825a.736.736,0,0,1-.8-.8.736.736,0,0,1,.8-.8h10.9a.736.736,0,0,1,.8.8A.736.736,0,0,1,18.725,10.425Z" style="fill:#444"/><path d="M18.725,18.425H7.825a.8.8,0,1,1,0-1.6h10.9a.8.8,0,1,1,0,1.6Z" style="fill:#444"/><path d="M1.825,3.225a5.39,5.39,0,0,1-1-.3l-.6-.6a.785.785,0,0,1,0-1.1.785.785,0,0,1,1.1,0l.3.3,1.1-1.3a.785.785,0,0,1,1.1,0,.785.785,0,0,1,0,1.1l-1.4,1.4c0,.4-.3.5-.6.5Z" style="fill:#444"/><path d="M1.825,11.225a5.39,5.39,0,0,1-1-.3l-.6-.6a.785.785,0,0,1,0-1.1.785.785,0,0,1,1.1,0l.3.3,1.1-1.3a.778.778,0,1,1,1.1,1.1l-1.4,1.4c0,.4-.3.5-.6.5Z" style="fill:#444"/><path d="M1.825,19.225a5.39,5.39,0,0,1-1-.3l-.6-.6a.785.785,0,0,1,0-1.1.785.785,0,0,1,1.1,0l.3.3,1.1-1.3a.778.778,0,0,1,1.1,1.1l-1.4,1.4c0,.4-.3.5-.6.5Z" style="fill:#444"/></g></g></svg>