<svg xmlns="http://www.w3.org/2000/svg" viewBox="0 0 27.2 19.2" width="20" height="12"><title>payment</title><g id="Layer_2" data-name="Layer 2"><g id="Layer_1-2" data-name="Layer 1"><path d="M24.8,19.2H2.4A2.433,2.433,0,0,1,0,16.8V2.4A2.433,2.433,0,0,1,2.4,0H24.8a2.433,2.433,0,0,1,2.4,2.4V16.8A2.433,2.433,0,0,1,24.8,19.2ZM2.4,1.6a.736.736,0,0,0-.8.8V16.8a.736.736,0,0,0,.8.8H24.8a.736.736,0,0,0,.8-.8V2.4a.736.736,0,0,0-.8-.8Z" style="fill:#444"/><rect x="0.8" y="3.7" width="25.6" height="1.6" style="fill:#444"/><rect x="0.8" y="6.5" width="25.6" height="1.6" style="fill:#444"/><path d="M8.4,11.8H4.2a.736.736,0,0,1-.8-.8.736.736,0,0,1,.8-.8H8.4a.736.736,0,0,1,.8.8A.789.789,0,0,1,8.4,11.8Z" style="fill:#444"/><path d="M14,15.2H4.2a.8.8,0,0,1,0-1.6H14a.736.736,0,0,1,.8.8A.855.855,0,0,1,14,15.2Z" style="fill:#444"/></g></g></svg>